<svg width="300" height="295" xmlns="http://www.w3.org/2000/svg">

 <g>
  <title>background</title>
  <rect fill="none" id="canvas_background" height="402" width="582" y="-1" x="-1"/>
 </g>
 <g>
  <title>Layer 1</title>
  <g stroke="null" id="svg_1">
   <g stroke="null" id="Layer_2_1_">
    <g stroke="null" id="svg_2">
     <rect stroke="null" id="svg_3" height="295" width="300" fill="#000000"/>
    </g>
   </g>
   <g stroke="null" id="Layer_2">
    <g stroke="null" id="svg_4">
     <rect stroke="null" id="svg_5" height="248.082" width="252.284" fill="#ffffff" y="23.459" x="23.859"/>
    </g>
   </g>
   <g stroke="null" id="Layer_4">
    <g stroke="null" id="svg_6">
     <path stroke="null" id="svg_7" d="m72.498,83.144c0,0 18.968,-0.499 34.582,-0.499c15.778,0 27.028,3.712 34.581,10.235c7.219,6.164 12.087,16.672 12.087,28.634s-3.694,21.75 -10.41,28.633c-8.729,8.881 -18.901,14.137 -36.258,14.865c-4.795,0.201 -9.233,0.249 -9.233,0.249l0,38.884l-25.35,0l0.001,-121.001l0,0zm25.348,60.573c2.754,0.268 4.48,0.139 8.562,0.09c13.598,-0.163 21.989,-8.432 21.989,-20.937c0,-11.234 -6.919,-20.458 -19.973,-20.936c-5.203,-0.19 -10.578,0 -10.578,0l0,41.783z" fill="#000000"/>
     <g stroke="null" id="svg_8">
      <path stroke="null" id="svg_9" d="m163.422,177.055c5.109,3.135 17.165,7.83 25.383,7.83c8.396,0 11.863,-2.959 11.863,-7.572c0,-4.619 -2.738,-9.471 -13.145,-12.979c-18.439,-6.279 -25.559,-13.795 -25.375,-24.315c0,-16.991 14.238,-29.731 36.328,-29.731c10.407,0 18.719,3.402 24.192,6.17l0,20.392c-4.019,-2.218 -15.612,-7.17 -23.278,-7.17c-6.758,0 -10.59,2.769 -10.59,7.382c0,4.248 3.471,6.464 14.424,10.344c16.976,5.908 24.096,14.584 24.277,27.879c0,16.805 -12.954,30.168 -38.701,29.357c-8.835,-0.278 -18.624,-3.77 -25.379,-7.459l0,-20.128l0.001,0z" fill="#000000"/>
     </g>
    </g>
   </g>
  </g>
 </g>
</svg>